<?xml version="1.0" standalone="no"?>
<!DOCTYPE svg PUBLIC "-//W3C//DTD SVG 20010904//EN"
 "http://www.w3.org/TR/2001/REC-SVG-20010904/DTD/svg10.dtd">
<svg version="1.0" xmlns="http://www.w3.org/2000/svg"
 width="123.000000pt" height="123.000000pt" viewBox="0 0 123.000000 123.000000"
 preserveAspectRatio="xMidYMid meet">
<metadata>
Created by potrace 1.11, written by Peter Selinger 2001-2013
</metadata>
<g transform="translate(0.000000,123.000000) scale(0.100000,-0.100000)"
fill="#000000" stroke="none">
<path d="M170 1214 c0 -4 19 -24 42 -45 41 -37 42 -40 40 -94 -1 -31 -11 -91
-22 -135 -37 -143 -21 -212 63 -277 l29 -22 -34 -14 c-44 -19 -95 -63 -114
-98 -8 -16 -17 -66 -20 -111 -12 -192 -21 -220 -74 -242 -21 -8 -44 -25 -50
-36 -10 -18 -8 -20 18 -20 82 0 171 51 206 118 12 23 24 32 42 32 36 0 98 34
118 66 13 19 19 51 21 113 3 104 7 115 51 136 19 9 34 21 34 27 0 6 -14 26
-30 45 -34 38 -35 59 -5 142 31 90 6 159 -72 196 -28 13 -42 27 -43 39 0 36
-41 105 -78 134 -54 41 -122 67 -122 46z m240 -323 c0 -20 -6 -59 -14 -88 -17
-65 -8 -115 29 -153 l26 -28 -36 -22 c-48 -29 -62 -61 -68 -150 -3 -41 -8 -83
-12 -92 -6 -15 -46 -48 -59 -48 -2 0 -3 49 -3 108 2 123 15 154 73 178 41 17
45 47 10 75 -31 24 -48 76 -41 120 6 34 43 156 53 173 10 18 42 -37 42 -73z"/>
<path d="M1105 1098 c-61 -22 -120 -74 -131 -115 -4 -15 -14 -23 -28 -23 -38
-1 -105 -38 -124 -70 -15 -23 -19 -50 -19 -111 -1 -89 -14 -126 -50 -135 -13
-4 -28 -14 -33 -24 -7 -14 -4 -21 14 -33 41 -27 46 -63 21 -147 -16 -53 -20
-84 -14 -108 9 -39 49 -85 89 -102 20 -8 29 -20 33 -46 12 -73 93 -156 168
-171 29 -6 31 -5 20 15 -6 12 -20 26 -31 32 -51 27 -55 96 -14 254 29 114 15
176 -56 240 l-38 34 38 17 c88 40 121 96 127 215 8 166 26 220 77 236 24 7 56
33 56 46 0 11 -68 9 -105 -4z m-146 -278 c2 -118 -13 -163 -66 -188 -40 -19
-43 -45 -8 -75 40 -35 43 -102 7 -210 -27 -81 -30 -86 -45 -69 -21 23 -28 65
-16 104 15 50 22 115 15 143 -3 13 -19 38 -34 53 l-29 29 33 18 c55 29 71 66
75 170 3 65 29 116 65 125 1 0 2 -45 3 -100z"/>
<path d="M609 798 c-46 -15 -61 -90 -26 -126 8 -7 29 -14 47 -14 58 -2 91 68
55 119 -18 26 -42 32 -76 21z"/>
<path d="M581 578 c-13 -5 -30 -16 -37 -26 -18 -23 -17 -77 1 -92 23 -19 18
-36 -16 -63 l-31 -24 47 -7 c37 -6 51 -4 66 10 24 21 59 94 59 122 0 57 -44
97 -89 80z"/>
</g>
</svg>
